/Users/zoomies/Desktop/liveitupdeals/pipeline_scraper.py:77: FutureWarning: 

All support for the `google.generativeai` package has ended. It will no longer be receiving 
updates or bug fixes. Please switch to the `google.genai` package as soon as possible.
See README for more details:

https://github.com/google-gemini/deprecated-generative-ai-python/blob/main/README.md

  import google.generativeai as gemini
2026-01-31 19:37:46,632 [INFO] Fetching from RapidAPI for 'luxury coffee machine'...
2026-01-31 19:37:48,901 [INFO]   Fetching details for B0D45PK5V4...
2026-01-31 19:37:52,405 [INFO] ✓ RapidAPI returned 1 enriched products
2026-01-31 19:37:52,408 [INFO] ✨ Products fetched via RapidAPI for 'luxury coffee machine'
2026-01-31 19:37:52,644 [ERROR] Script generation failed: 429 You exceeded your current quota, please check your plan and billing details. For more information on this error, head to: https://ai.google.dev/gemini-api/docs/rate-limits. To monitor your current usage, head to: https://ai.dev/rate-limit. 
* Quota exceeded for metric: generativelanguage.googleapis.com/generate_content_free_tier_requests, limit: 20, model: gemini-2.5-flash
Please retry in 7.42066131s. [links {
  description: "Learn more about Gemini API quotas"
  url: "https://ai.google.dev/gemini-api/docs/rate-limits"
}
, violations {
  quota_metric: "generativelanguage.googleapis.com/generate_content_free_tier_requests"
  quota_id: "GenerateRequestsPerDayPerProjectPerModel-FreeTier"
  quota_dimensions {
    key: "model"
    value: "gemini-2.5-flash"
  }
  quota_dimensions {
    key: "location"
    value: "global"
  }
  quota_value: 20
}
, retry_delay {
  seconds: 7
}
]
2026-01-31 19:37:52,644 [INFO] Generating Gemini voiceover for B0D45PK5V4...
2026-01-31 19:37:52,788 [ERROR] Gemini Voice generation failed: 429 You exceeded your current quota, please check your plan and billing details. For more information on this error, head to: https://ai.google.dev/gemini-api/docs/rate-limits. To monitor your current usage, head to: https://ai.dev/rate-limit. 
* Quota exceeded for metric: generativelanguage.googleapis.com/generate_content_free_tier_requests, limit: 10, model: gemini-2.5-flash-tts
Please retry in 7.227800943s. [links {
  description: "Learn more about Gemini API quotas"
  url: "https://ai.google.dev/gemini-api/docs/rate-limits"
}
, violations {
  quota_metric: "generativelanguage.googleapis.com/generate_content_free_tier_requests"
  quota_id: "GenerateRequestsPerDayPerProjectPerModel-FreeTier"
  quota_dimensions {
    key: "model"
    value: "gemini-2.5-flash-tts"
  }
  quota_dimensions {
    key: "location"
    value: "global"
  }
  quota_value: 10
}
, retry_delay {
  seconds: 7
}
]
2026-01-31 19:37:53,206 [INFO] Generating refined 3.1 video for B0D45PK5V4...
2026-01-31 19:37:53,595 [ERROR] FFmpeg failed with exit code 234
2026-01-31 19:37:53,595 [ERROR] STDOUT: 
2026-01-31 19:37:53,595 [ERROR] STDERR: ffmpeg version 8.0 Copyright (c) 2000-2025 the FFmpeg developers
  built with Apple clang version 17.0.0 (clang-1700.3.19.1)
  configuration: --prefix=/opt/homebrew/Cellar/ffmpeg/8.0_1 --enable-shared --enable-pthreads --enable-version3 --cc=clang --host-cflags= --host-ldflags= --enable-ffplay --enable-gnutls --enable-gpl --enable-libaom --enable-libaribb24 --enable-libbluray --enable-libdav1d --enable-libharfbuzz --enable-libjxl --enable-libmp3lame --enable-libopus --enable-librav1e --enable-librist --enable-librubberband --enable-libsnappy --enable-libsrt --enable-libssh --enable-libsvtav1 --enable-libtesseract --enable-libtheora --enable-libvidstab --enable-libvmaf --enable-libvorbis --enable-libvpx --enable-libwebp --enable-libx264 --enable-libx265 --enable-libxml2 --enable-libxvid --enable-lzma --enable-libfontconfig --enable-libfreetype --enable-frei0r --enable-libass --enable-libopencore-amrnb --enable-libopencore-amrwb --enable-libopenjpeg --enable-libspeex --enable-libsoxr --enable-libzmq --enable-libzimg --disable-libjack --disable-indev=jack --enable-videotoolbox --enable-audiotoolbox --enable-neon
  libavutil      60.  8.100 / 60.  8.100
  libavcodec     62. 11.100 / 62. 11.100
  libavformat    62.  3.100 / 62.  3.100
  libavdevice    62.  1.100 / 62.  1.100
  libavfilter    11.  4.100 / 11.  4.100
  libswscale      9.  1.100 /  9.  1.100
  libswresample   6.  1.100 /  6.  1.100
Input #0, image2, from 'temp/img_B0D45PK5V4_0.jpg':
  Duration: 00:00:00.04, start: 0.000000, bitrate: 23407 kb/s
  Stream #0:0: Video: mjpeg (Progressive), yuvj420p(pc, bt470bg/unknown/unknown), 1500x1161 [SAR 1:1 DAR 500:387], 25 fps, 25 tbr, 25 tbn
[mjpeg @ 0xa34e10a80] EOI missing, emulating
Input #1, image2, from 'temp/img_B0D45PK5V4_1.jpg':
  Duration: 00:00:00.04, start: 0.000000, bitrate: 19341 kb/s
  Stream #1:0: Video: mjpeg (Progressive), yuvj420p(pc, bt470bg/unknown/unknown), 1500x1120 [SAR 1:1 DAR 75:56], 25 fps, 25 tbr, 25 tbn
[mjpeg @ 0xa34e11180] EOI missing, emulating
Input #2, image2, from 'temp/img_B0D45PK5V4_2.jpg':
  Duration: 00:00:00.04, start: 0.000000, bitrate: 34796 kb/s
  Stream #2:0: Video: mjpeg (Progressive), yuvj420p(pc, bt470bg/unknown/unknown), 1500x1500 [SAR 1:1 DAR 1:1], 25 fps, 25 tbr, 25 tbn
[mjpeg @ 0xa34e11880] EOI missing, emulating
Input #3, image2, from 'temp/img_B0D45PK5V4_3.jpg':
  Duration: 00:00:00.04, start: 0.000000, bitrate: 27819 kb/s
  Stream #3:0: Video: mjpeg (Progressive), yuvj420p(pc, bt470bg/unknown/unknown), 1500x1500 [SAR 1:1 DAR 1:1], 25 fps, 25 tbr, 25 tbn
Input #4, image2, from 'temp/img_B0D45PK5V4_4.jpg':
  Duration: 00:00:00.04, start: 0.000000, bitrate: 44030 kb/s
  Stream #4:0: Video: mjpeg (Progressive), yuvj420p(pc, bt470bg/unknown/unknown), 1500x1500 [SAR 1:1 DAR 1:1], 25 fps, 25 tbr, 25 tbn
[out @ 0xa34c09140] The "sample_fmts" option is deprecated: set the supported sample formats
[out @ 0xa34c09140] The "all_channel_counts" option is deprecated: accept all channel counts
Input #5, lavfi, from 'anullsrc=channel_layout=stereo:sample_rate=44100':
  Duration: N/A, start: 0.000000, bitrate: 705 kb/s
  Stream #5:0: Audio: pcm_u8, 44100 Hz, stereo, u8, 705 kb/s
Stream mapping:
  Stream #0:0 (mjpeg) -> scale:default
  Stream #0:0 (mjpeg) -> scale:default
  Stream #1:0 (mjpeg) -> scale:default
  Stream #1:0 (mjpeg) -> scale:default
  Stream #2:0 (mjpeg) -> scale:default
  Stream #2:0 (mjpeg) -> scale:default
  Stream #3:0 (mjpeg) -> scale:default
  Stream #3:0 (mjpeg) -> scale:default
  Stream #4:0 (mjpeg) -> scale:default
  Stream #4:0 (mjpeg) -> scale:default
  Stream #5:0 (pcm_u8) -> volume:default
  drawtext:default -> Stream #0:0 (libx264)
  volume:default -> Stream #0:1 (aac)
Press [q] to stop, [?] for help
[Parsed_concat_25 @ 0xa34c0bb40] Input link in0:v0 parameters (size 1080x1920, SAR 6000:5999) do not match the corresponding output link in0:v0 parameters (1080x1920, SAR 320000:320049)
[Parsed_concat_25 @ 0xa34c0bb40] Failed to configure output pad on Parsed_concat_25
[fc#0 @ 0xa3501c000] Error reinitializing filters!
[fc#0 @ 0xa3501c000] Task finished with error code: -22 (Invalid argument)
[vost#0:0/libx264 @ 0xa351f8000] [enc:libx264 @ 0xa351e6e60] Could not open encoder before EOF
[aost#0:1/aac @ 0xa351f8300] [enc:aac @ 0xa351e7090] Could not open encoder before EOF
[aost#0:1/aac @ 0xa351f8300] Task finished with error code: -22 (Invalid argument)
[vost#0:0/libx264 @ 0xa351f8000] Task finished with error code: -22 (Invalid argument)
[vost#0:0/libx264 @ 0xa351f8000] Terminating thread with return code -22 (Invalid argument)
[fc#0 @ 0xa3501c000] Terminating thread with return code -22 (Invalid argument)
[aost#0:1/aac @ 0xa351f8300] Terminating thread with return code -22 (Invalid argument)
[out#0/mp4 @ 0xa34c092c0] Nothing was written into output file, because at least one of its streams received no packets.
frame=    0 fps=0.0 q=0.0 Lsize=       0KiB time=N/A bitrate=N/A speed=N/A elapsed=0:00:00.07    
Conversion failed!

2026-01-31 19:37:53,595 [ERROR] Failed to generate carousel video: FFmpeg error: ffmpeg version 8.0 Copyright (c) 2000-2025 the FFmpeg developers
  built with Apple clang version 17.0.0 (clang-1700.3.19.1)
  configuration: --prefix=/opt/homebrew/Cellar/ffmpeg/8.0_1 --enable-shared --enable-pthreads --enable-version3 --cc=clang --host-cflags= --host-ldflags= --enable-ffplay --enable-gnutls --enable-gpl --enable-libaom --enable-libaribb24 --enable-libbluray --enable-libdav1d --enable-libharfbuzz --enable-libjxl --enable-libmp3lame --enable-libopus --enable-librav1e --enable-librist --enable-librubberband --enable-libsnappy --enable-libsrt --enable-libssh --enable-libsvtav1 --enable-libtesseract --enable-libtheora --enable-libvidstab --enable-libvmaf --enable-libvorbis --enable-libvpx --enable-libwebp --enable-libx264 --enable-libx265 --enable-libxml2 --enable-libxvid --enable-lzma --enable-libfontconfig --enable-libfreetype --enable-frei0r --enable-libass --enable-libopencore-amrnb --enable-libopencore-amrwb --enable-libopenjpeg --enable-libspeex --enable-libsoxr --enable-libzmq --enable-libzimg --disable-libjack --disable-indev=jack --enable-videotoolbox --enable-audiotoolbox --enable-neon
  libavutil      60.  8.100 / 60.  8.100
  libavcodec     62. 11.100 / 62. 11.100
  libavformat    62.  3.100 / 62.  3.100
  libavdevice    62.  1.100 / 62.  1.100
  libavfilter    11.  4.100 / 11.  4.100
  libswscale      9.  1.100 /  9.  1.100
  libswresample   6.  1.100 /  6.  1.100
Input #0, image2, from 'temp/img_B0D45PK5V4_0.jpg':
  Duration: 00:00:00.04, start: 0.000000, bitrate: 23407 kb/s
  Stream #0:0: Video: mjpeg (Progressive), yuvj420p(pc, bt470bg/unknown/unknown), 1500x1161 [SAR 1:1 DAR 500:387], 25 fps, 25 tbr, 25 tbn
[mjpeg @ 0xa34e10a80] EOI missing, emulating
Input #1, image2, from 'temp/img_B0D45PK5V4_1.jpg':
  Duration: 00:00:00.04, start: 0.000000, bitrate: 19341 kb/s
  Stream #1:0: Video: mjpeg (Progressive), yuvj420p(pc, bt470bg/unknown/unknown), 1500x1120 [SAR 1:1 DAR 75:56], 25 fps, 25 tbr, 25 tbn
[mjpeg @ 0xa34e11180] EOI missing, emulating
Input #2, image2, from 'temp/img_B0D45PK5V4_2.jpg':
  Duration: 00:00:00.04, start: 0.000000, bitrate: 34796 kb/s
  Stream #2:0: Video: mjpeg (Progressive), yuvj420p(pc, bt470bg/unknown/unknown), 1500x1500 [SAR 1:1 DAR 1:1], 25 fps, 25 tbr, 25 tbn
[mjpeg @ 0xa34e11880] EOI missing, emulating
Input #3, image2, from 'temp/img_B0D45PK5V4_3.jpg':
  Duration: 00:00:00.04, start: 0.000000, bitrate: 27819 kb/s
  Stream #3:0: Video: mjpeg (Progressive), yuvj420p(pc, bt470bg/unknown/unknown), 1500x1500 [SAR 1:1 DAR 1:1], 25 fps, 25 tbr, 25 tbn
Input #4, image2, from 'temp/img_B0D45PK5V4_4.jpg':
  Duration: 00:00:00.04, start: 0.000000, bitrate: 44030 kb/s
  Stream #4:0: Video: mjpeg (Progressive), yuvj420p(pc, bt470bg/unknown/unknown), 1500x1500 [SAR 1:1 DAR 1:1], 25 fps, 25 tbr, 25 tbn
[out @ 0xa34c09140] The "sample_fmts" option is deprecated: set the supported sample formats
[out @ 0xa34c09140] The "all_channel_counts" option is deprecated: accept all channel counts
Input #5, lavfi, from 'anullsrc=channel_layout=stereo:sample_rate=44100':
  Duration: N/A, start: 0.000000, bitrate: 705 kb/s
  Stream #5:0: Audio: pcm_u8, 44100 Hz, stereo, u8, 705 kb/s
Stream mapping:
  Stream #0:0 (mjpeg) -> scale:default
  Stream #0:0 (mjpeg) -> scale:default
  Stream #1:0 (mjpeg) -> scale:default
  Stream #1:0 (mjpeg) -> scale:default
  Stream #2:0 (mjpeg) -> scale:default
  Stream #2:0 (mjpeg) -> scale:default
  Stream #3:0 (mjpeg) -> scale:default
  Stream #3:0 (mjpeg) -> scale:default
  Stream #4:0 (mjpeg) -> scale:default
  Stream #4:0 (mjpeg) -> scale:default
  Stream #5:0 (pcm_u8) -> volume:default
  drawtext:default -> Stream #0:0 (libx264)
  volume:default -> Stream #0:1 (aac)
Press [q] to stop, [?] for help
[Parsed_concat_25 @ 0xa34c0bb40] Input link in0:v0 parameters (size 1080x1920, SAR 6000:5999) do not match the corresponding output link in0:v0 parameters (1080x1920, SAR 320000:320049)
[Parsed_concat_25 @ 0xa34c0bb40] Failed to configure output pad on Parsed_concat_25
[fc#0 @ 0xa3501c000] Error reinitializing filters!
[fc#0 @ 0xa3501c000] Task finished with error code: -22 (Invalid argument)
[vost#0:0/libx264 @ 0xa351f8000] [enc:libx264 @ 0xa351e6e60] Could not open encoder before EOF
[aost#0:1/aac @ 0xa351f8300] [enc:aac @ 0xa351e7090] Could not open encoder before EOF
[aost#0:1/aac @ 0xa351f8300] Task finished with error code: -22 (Invalid argument)
[vost#0:0/libx264 @ 0xa351f8000] Task finished with error code: -22 (Invalid argument)
[vost#0:0/libx264 @ 0xa351f8000] Terminating thread with return code -22 (Invalid argument)
[fc#0 @ 0xa3501c000] Terminating thread with return code -22 (Invalid argument)
[aost#0:1/aac @ 0xa351f8300] Terminating thread with return code -22 (Invalid argument)
[out#0/mp4 @ 0xa34c092c0] Nothing was written into output file, because at least one of its streams received no packets.
frame=    0 fps=0.0 q=0.0 Lsize=       0KiB time=N/A bitrate=N/A speed=N/A elapsed=0:00:00.07    
Conversion failed!

🔍 Fetching high-end product with multi-images...
✅ Found: Ninja Luxe Café 3-in-1 Espresso, Drip Coffee and Cold Brew Machine | Integrated Coffee Grinder, Milk Frother, Assisted Tamper & Built-In Espresso Accessory Storage | Stainless Steel | ES601
✅ Images: 5
🤖 Generating professional narration script...
{
  "title": "Viral Deal: Ninja Luxe Caf\u00e9 3-in-1 Espress",
  "narration": "Don't miss this incredible deal on Ninja Luxe Caf\u00e9 3-in-1 Espresso, Drip Coffee and Cold Brew Machine | Integrated Coffee Grinder, Milk Frother, Assisted Tamper & Built-In Espresso Accessory Storage | Stainless Steel | ES601. It is a game changer for your routine. High quality and great price. Link is in the first comment!",
  "hook_overlay": "Wait for it...",
  "body_overlay": "Special Price: 599.00",
  "cta_overlay": "Check first comment!",
  "hashtags": [
    "deals",
    "amazon",
    "luxury"
  ]
}
🎙️ Generating Nova voiceover...
🎬 Assembling Carousel Video (15s)...
❌ Video assembly failed.
